<?xml version="1.0" standalone="no"?>
<!DOCTYPE svg PUBLIC "-//W3C//DTD SVG 20010904//EN"
 "http://www.w3.org/TR/2001/REC-SVG-20010904/DTD/svg10.dtd">
<svg version="1.0" xmlns="http://www.w3.org/2000/svg"
 width="32.000000pt" height="32.000000pt" viewBox="0 0 32.000000 32.000000"
 preserveAspectRatio="xMidYMid meet">

<g transform="translate(0.000000,32.000000) scale(0.100000,-0.100000)"
fill="#000000" stroke="none">
<path d="M0 160 l0 -160 40 0 c37 0 40 2 40 28 0 19 -9 33 -30 47 -28 19 -30
24 -30 86 0 73 17 105 74 140 l31 19 -62 0 -63 0 0 -160z"/>
<path d="M226 301 c57 -35 74 -67 74 -140 0 -62 -2 -67 -29 -86 -18 -11 -31
-30 -33 -47 -4 -27 -3 -28 39 -28 l43 0 0 160 0 160 -62 0 -63 0 31 -19z"/>
<path d="M75 173 c-18 -18 -19 -35 -3 -51 28 -28 75 -1 63 36 -8 26 -41 34
-60 15z"/>
<path d="M195 174 c-19 -20 -16 -43 8 -58 20 -13 50 2 55 26 3 16 -23 48 -38
48 -5 0 -16 -7 -25 -16z"/>
<path d="M146 95 c-4 -10 1 -15 14 -15 13 0 18 5 14 15 -4 8 -10 15 -14 15 -4
0 -10 -7 -14 -15z"/>
<path d="M110 15 c0 -8 5 -15 10 -15 6 0 10 7 10 15 0 8 -4 15 -10 15 -5 0
-10 -7 -10 -15z"/>
<path d="M150 15 c0 -8 5 -15 10 -15 6 0 10 7 10 15 0 8 -4 15 -10 15 -5 0
-10 -7 -10 -15z"/>
<path d="M190 15 c0 -8 5 -15 10 -15 6 0 10 7 10 15 0 8 -4 15 -10 15 -5 0
-10 -7 -10 -15z"/>
</g>
</svg>
