<?xml version="1.0" standalone="no"?>
<!DOCTYPE svg PUBLIC "-//W3C//DTD SVG 20010904//EN"
 "http://www.w3.org/TR/2001/REC-SVG-20010904/DTD/svg10.dtd">
<svg version="1.0" xmlns="http://www.w3.org/2000/svg"
 width="32.000000pt" height="32.000000pt" viewBox="0 0 32.000000 32.000000"
 preserveAspectRatio="xMidYMid meet">

<g transform="translate(0.000000,32.000000) scale(0.100000,-0.100000)"
fill="#000000" stroke="none">
<path d="M0 246 c0 -50 4 -76 13 -80 10 -5 10 -7 0 -12 -9 -4 -13 -30 -13 -80
l0 -74 75 0 c60 0 75 3 75 15 0 8 5 15 10 15 6 0 10 -7 10 -15 0 -12 15 -15
75 -15 l75 0 0 74 c0 50 -4 76 -12 80 -10 5 -10 7 0 12 8 4 12 30 12 80 l0 74
-75 0 c-60 0 -75 -3 -75 -15 0 -8 -4 -15 -10 -15 -5 0 -10 7 -10 15 0 12 -15
15 -75 15 l-75 0 0 -74z m150 29 c0 -9 -10 -19 -22 -24 -26 -10 -52 -37 -61
-63 -8 -22 -37 -24 -37 -2 0 9 7 28 16 43 29 48 104 81 104 46z m80 -1 c29
-18 60 -62 60 -88 0 -24 -29 -19 -39 7 -10 25 -37 51 -63 60 -22 8 -24 37 -2
37 9 0 28 -7 44 -16z m-64 -47 c8 18 49 -4 62 -32 8 -18 8 -25 -1 -29 -9 -5
-9 -7 0 -12 18 -8 -4 -49 -32 -62 -18 -8 -25 -8 -29 1 -5 9 -7 9 -12 0 -4 -9
-11 -9 -29 -1 -28 13 -50 54 -32 62 9 5 9 7 0 12 -9 4 -9 11 -1 29 13 28 49
47 61 31 6 -8 10 -8 13 1z m-99 -94 c9 -27 35 -54 61 -64 25 -10 30 -39 6 -39
-41 0 -104 63 -104 104 0 22 29 20 37 -1z m223 1 c0 -9 -7 -28 -16 -44 -18
-29 -62 -60 -88 -60 -22 0 -20 29 2 37 26 9 53 35 63 61 10 25 39 30 39 6z"/>
<path d="M134 176 c-10 -26 4 -48 28 -44 17 2 23 10 23 28 0 18 -6 26 -23 28
-13 2 -25 -3 -28 -12z m36 -16 c0 -5 -4 -10 -10 -10 -5 0 -10 5 -10 10 0 6 5
10 10 10 6 0 10 -4 10 -10z"/>
</g>
</svg>
